<?xml version="1.0" encoding="UTF-8" standalone="no"?>
<svg
   xmlns:dc="http://purl.org/dc/elements/1.1/"
   xmlns:cc="http://creativecommons.org/ns#"
   xmlns:rdf="http://www.w3.org/1999/02/22-rdf-syntax-ns#"
   xmlns:svg="http://www.w3.org/2000/svg"
   xmlns="http://www.w3.org/2000/svg"
   viewBox="35 30 270 105"
   xml:space="preserve"
   id="svg3756"
   version="1.1"><metadata
     id="metadata3762"><rdf:RDF><cc:Work
         rdf:about=""><dc:format>image/svg+xml</dc:format><dc:type
           rdf:resource="http://purl.org/dc/dcmitype/StillImage" /><dc:title></dc:title></cc:Work></rdf:RDF></metadata><defs
     id="defs3760"><clipPath
       id="clipPath3838"
       clipPathUnits="userSpaceOnUse"><path
         id="path3836"
         d="M 0,120.405 H 254.118 V 0 H 0 Z" /></clipPath></defs><g
     transform="matrix(1.3333333,0,0,-1.3333333,0,160.54)"
     id="g3764"><g
       id="g3832"><g
         clip-path="url(#clipPath3838)"
         id="g3834"><g
           transform="translate(129.2,75.4932)"
           id="g3840"><path
             id="path3842"
             style="fill:#000000;fill-opacity:1;fill-rule:nonzero;stroke:none"
             d="M 0,0 H 5.07 C 7.87,0 9.271,1.18 9.271,3.54 9.271,5.9 7.87,7.08 5.07,7.08 H 0 Z M 4.74,-2.25 H 0 v -8.22 h -2.399 v 19.8 h 7.5 C 7.12,9.33 8.74,8.81 9.96,7.771 11.18,6.73 11.79,5.32 11.79,3.54 11.79,2.14 11.4,0.96 10.62,0 9.84,-0.96 8.77,-1.62 7.41,-1.979 l 5.58,-8.491 h -2.85 z" /></g><path
           id="path3844"
           style="fill:#000000;fill-opacity:1;fill-rule:nonzero;stroke:none"
           d="m 149.45,65.023 h -2.4 v 15 h 2.4 z m -2.505,18.375 c -0.33,0.331 -0.495,0.765 -0.495,1.305 0,0.54 0.165,0.976 0.495,1.306 0.33,0.33 0.765,0.495 1.305,0.495 0.54,0 0.974,-0.165 1.304,-0.495 0.331,-0.33 0.496,-0.766 0.496,-1.306 0,-0.54 -0.165,-0.974 -0.496,-1.305 -0.33,-0.33 -0.764,-0.495 -1.304,-0.495 -0.54,0 -0.975,0.165 -1.305,0.495" /><g
           transform="translate(165.1102,66.0732)"
           id="g3846"><path
             id="path3848"
             style="fill:#000000;fill-opacity:1;fill-rule:nonzero;stroke:none"
             d="m 0,0 c -1.001,-0.899 -2.291,-1.35 -3.87,-1.35 -1.221,0 -2.216,0.33 -2.985,0.991 C -7.626,0.3 -8.021,1.31 -8.04,2.67 v 9.21 h -3 v 2.07 h 3 v 3.6 l 2.399,0.66 v -4.26 h 5.55 v -2.07 h -5.55 V 3.09 c 0,-0.72 0.205,-1.265 0.616,-1.635 0.409,-0.37 0.955,-0.555 1.634,-0.555 0.96,0 1.81,0.371 2.55,1.11 z" /></g><g
           transform="translate(180.8895,78.8535)"
           id="g3850"><path
             id="path3852"
             style="fill:#000000;fill-opacity:1;fill-rule:nonzero;stroke:none"
             d="m 0,0 c 1.101,-0.98 1.65,-2.391 1.65,-4.23 v -9.6 h -2.4 v 8.76 c 0,1.56 -0.335,2.689 -1.005,3.39 -0.67,0.7 -1.564,1.05 -2.684,1.05 -0.781,0 -1.526,-0.181 -2.236,-0.54 -0.71,-0.36 -1.29,-0.935 -1.739,-1.726 -0.45,-0.79 -0.676,-1.784 -0.676,-2.984 v -7.95 h -2.399 v 21.9 h 2.399 v -9.15 c 0.5,0.859 1.175,1.5 2.026,1.92 0.849,0.42 1.804,0.63 2.865,0.63 C -2.5,1.47 -1.1,0.979 0,0" /></g><g
           transform="translate(209.1043,79.708)"
           id="g3854"><path
             id="path3856"
             style="fill:#000000;fill-opacity:1;fill-rule:nonzero;stroke:none"
             d="m 0,0 c 0.87,-0.41 1.575,-1.045 2.115,-1.904 0.54,-0.861 0.811,-1.92 0.811,-3.181 v -9.6 H 0.525 v 9.361 c 0,1.3 -0.325,2.264 -0.974,2.894 -0.651,0.63 -1.506,0.946 -2.566,0.946 -0.799,0 -1.535,-0.196 -2.205,-0.585 -0.67,-0.391 -1.21,-0.96 -1.62,-1.71 -0.41,-0.75 -0.615,-1.646 -0.615,-2.686 v -8.22 h -2.399 v 9.361 c 0,1.3 -0.326,2.264 -0.976,2.894 -0.649,0.63 -1.505,0.946 -2.565,0.946 -0.719,0 -1.42,-0.186 -2.1,-0.556 -0.68,-0.37 -1.24,-0.944 -1.68,-1.725 -0.44,-0.78 -0.66,-1.75 -0.66,-2.91 v -8.01 h -2.399 v 15 h 2.099 l 0.151,-2.339 c 0.519,0.879 1.204,1.54 2.054,1.979 0.85,0.441 1.765,0.66 2.745,0.66 1.1,0 2.116,-0.25 3.045,-0.75 0.93,-0.5 1.635,-1.229 2.116,-2.189 0.439,0.96 1.159,1.689 2.16,2.189 0.999,0.5 2.019,0.75 3.059,0.75 1,0 1.935,-0.205 2.805,-0.615" /></g><g
           transform="translate(141.8103,50.9238)"
           id="g3858"><path
             id="path3860"
             style="fill:#000000;fill-opacity:1;fill-rule:nonzero;stroke:none"
             d="m 0,0 -2.07,-1.681 c -0.6,1.321 -1.316,2.255 -2.145,2.806 -0.83,0.55 -1.966,0.824 -3.405,0.824 -1.521,0 -2.715,-0.314 -3.585,-0.944 -0.87,-0.63 -1.305,-1.436 -1.305,-2.415 0,-0.641 0.169,-1.17 0.51,-1.59 0.34,-0.42 0.904,-0.785 1.694,-1.096 0.79,-0.309 1.886,-0.585 3.285,-0.824 2.621,-0.44 4.475,-1.101 5.566,-1.98 1.09,-0.88 1.635,-2.1 1.635,-3.661 0,-1.12 -0.315,-2.105 -0.946,-2.955 -0.63,-0.849 -1.525,-1.509 -2.684,-1.979 -1.16,-0.47 -2.5,-0.705 -4.021,-0.705 -2,0 -3.704,0.389 -5.114,1.17 -1.41,0.78 -2.485,1.819 -3.226,3.12 l 2.071,1.68 c 0.54,-1.181 1.335,-2.096 2.385,-2.746 1.049,-0.65 2.365,-0.974 3.945,-0.974 1.559,0 2.8,0.285 3.72,0.854 0.919,0.571 1.379,1.375 1.379,2.415 0,0.88 -0.4,1.58 -1.199,2.101 -0.801,0.519 -2.22,0.96 -4.261,1.319 -2.639,0.46 -4.509,1.12 -5.609,1.981 -1.1,0.859 -1.65,2.059 -1.65,3.599 0,1.061 0.3,2.04 0.9,2.941 0.6,0.899 1.459,1.614 2.58,2.144 1.119,0.531 2.419,0.795 3.9,0.795 C -4.11,4.199 -1.561,2.8 0,0" /></g><g
           transform="translate(156.7049,49.2881)"
           id="g3862"><path
             id="path3864"
             style="fill:#000000;fill-opacity:1;fill-rule:nonzero;stroke:none"
             d="m 0,0 c 1.029,-0.689 1.834,-1.675 2.415,-2.955 l -2.28,-1.079 c -0.641,1.979 -1.97,2.97 -3.99,2.97 -1.5,0 -2.675,-0.506 -3.525,-1.516 -0.85,-1.01 -1.275,-2.404 -1.275,-4.185 0,-1.78 0.425,-3.175 1.275,-4.184 0.85,-1.011 2.025,-1.516 3.525,-1.516 1.16,0 2.094,0.265 2.805,0.795 0.709,0.53 1.174,1.295 1.395,2.295 l 2.219,-0.779 c -0.52,-1.401 -1.319,-2.486 -2.399,-3.255 -1.08,-0.771 -2.4,-1.155 -3.96,-1.155 -2.261,0 -4.035,0.689 -5.325,2.069 -1.29,1.381 -1.936,3.29 -1.936,5.73 0,2.44 0.646,4.35 1.936,5.731 1.29,1.38 3.064,2.069 5.325,2.069 C -2.295,1.035 -1.03,0.69 0,0" /></g><g
           transform="translate(174.9891,48.8535)"
           id="g3866"><path
             id="path3868"
             style="fill:#000000;fill-opacity:1;fill-rule:nonzero;stroke:none"
             d="m 0,0 c 1.101,-0.98 1.65,-2.391 1.65,-4.23 v -9.6 h -2.4 v 8.76 c 0,1.56 -0.335,2.689 -1.005,3.39 -0.67,0.7 -1.564,1.05 -2.684,1.05 -0.781,0 -1.526,-0.181 -2.236,-0.54 -0.71,-0.36 -1.29,-0.935 -1.739,-1.726 -0.45,-0.79 -0.676,-1.784 -0.676,-2.984 v -7.95 h -2.399 v 21.9 h 2.399 v -9.15 c 0.5,0.859 1.175,1.5 2.026,1.92 0.849,0.42 1.804,0.63 2.865,0.63 C -2.5,1.47 -1.1,0.979 0,0" /></g><g
           transform="translate(184.8289,46.7236)"
           id="g3870"><path
             id="path3872"
             style="fill:#000000;fill-opacity:1;fill-rule:nonzero;stroke:none"
             d="m 0,0 c -0.859,-1.021 -1.29,-2.42 -1.29,-4.2 0,-1.78 0.431,-3.18 1.29,-4.2 0.86,-1.02 2.05,-1.531 3.57,-1.531 1.52,0 2.71,0.511 3.571,1.531 0.859,1.02 1.29,2.42 1.29,4.2 C 8.431,-2.42 8,-1.021 7.141,0 6.28,1.02 5.09,1.53 3.57,1.53 2.05,1.53 0.86,1.02 0,0 m 8.896,1.53 c 1.29,-1.381 1.934,-3.291 1.934,-5.73 0,-2.441 -0.644,-4.35 -1.934,-5.731 C 7.605,-11.311 5.83,-12 3.57,-12 c -2.259,0 -4.035,0.689 -5.325,2.069 -1.29,1.381 -1.934,3.29 -1.934,5.731 0,2.439 0.644,4.349 1.934,5.73 1.29,1.38 3.066,2.07 5.325,2.07 2.26,0 4.035,-0.69 5.326,-2.07" /></g><g
           transform="translate(203.0691,46.7236)"
           id="g3874"><path
             id="path3876"
             style="fill:#000000;fill-opacity:1;fill-rule:nonzero;stroke:none"
             d="m 0,0 c -0.86,-1.021 -1.29,-2.42 -1.29,-4.2 0,-1.78 0.43,-3.18 1.29,-4.2 0.859,-1.02 2.05,-1.531 3.57,-1.531 1.52,0 2.71,0.511 3.57,1.531 C 8,-7.38 8.43,-5.98 8.43,-4.2 8.43,-2.42 8,-1.021 7.14,0 6.28,1.02 5.09,1.53 3.57,1.53 2.05,1.53 0.859,1.02 0,0 m 8.895,1.53 c 1.29,-1.381 1.935,-3.291 1.935,-5.73 0,-2.441 -0.645,-4.35 -1.935,-5.731 C 7.604,-11.311 5.83,-12 3.57,-12 c -2.26,0 -4.035,0.689 -5.325,2.069 -1.29,1.381 -1.935,3.29 -1.935,5.731 0,2.439 0.645,4.349 1.935,5.73 1.29,1.38 3.065,2.07 5.325,2.07 2.26,0 4.034,-0.69 5.325,-2.07" /></g><g
           transform="translate(220.8289,39.043)"
           id="g3878"><path
             id="path3880"
             style="fill:#000000;fill-opacity:1;fill-rule:nonzero;stroke:none"
             d="M 0,0 C 0,-0.76 0.115,-1.285 0.345,-1.574 0.574,-1.864 1,-2.01 1.62,-2.01 c 0.42,0 0.784,0.031 1.095,0.09 0.309,0.061 0.675,0.17 1.095,0.33 L 3.42,-3.899 c -0.66,-0.281 -1.4,-0.42 -2.22,-0.42 -1.221,0 -2.126,0.33 -2.715,0.99 C -2.105,-2.67 -2.4,-1.66 -2.4,-0.3 V 17.881 H 0 Z" /></g><g
           transform="translate(88.7106,26.8247)"
           id="g3882"><path
             id="path3884"
             style="fill:none;stroke:#000000;stroke-width:2;stroke-linecap:butt;stroke-linejoin:miter;stroke-miterlimit:4;stroke-dasharray:none;stroke-opacity:1"
             d="m 0,0 h 4.87 c 9.489,0 11.673,2.687 11.673,8.649 v 16.123 c 0,4.871 0.756,7.726 6.466,8.734 v 0.336 c -5.71,1.008 -6.466,3.863 -6.466,8.733 v 16.123 c 0,5.963 -2.184,8.65 -11.673,8.65 H 0" /></g><g
           transform="translate(53.4221,94.1723)"
           id="g3886"><path
             id="path3888"
             style="fill:none;stroke:#000000;stroke-width:2;stroke-linecap:butt;stroke-linejoin:miter;stroke-miterlimit:4;stroke-dasharray:none;stroke-opacity:1"
             d="m 0,0 h -4.87 c -9.489,0 -11.673,-2.687 -11.673,-8.649 v -16.123 c 0,-4.871 -0.756,-7.726 -6.466,-8.734 v -0.336 c 5.71,-1.008 6.466,-3.863 6.466,-8.733 v -16.123 c 0,-5.963 2.184,-8.65 11.673,-8.65 H 0" /></g><g
           transform="translate(61.1085,60.8589)"
           id="g3890"><path
             id="path3892"
             style="fill:#000000;fill-opacity:1;fill-rule:nonzero;stroke:none"
             d="m 0,0 h 11.28 c 3.12,0 5.49,0.699 7.11,2.1 1.62,1.4 2.43,3.42 2.43,6.06 0,2.64 -0.81,4.65 -2.43,6.029 -1.62,1.381 -3.99,2.071 -7.11,2.071 H 0 Z M 11.28,-3.18 H 0 v -16.98 h -3.42 v 39.599 h 14.76 c 3.96,0 7.129,-1.009 9.51,-3.029 2.379,-2.02 3.57,-4.77 3.57,-8.25 0,-2.88 -0.82,-5.28 -2.46,-7.2 -1.641,-1.92 -3.9,-3.16 -6.78,-3.72 l 8.4,-17.4 h -4.02 z" /></g><g
           transform="translate(93.581,25.8249)"
           id="g3894"><path
             id="path3896"
             style="fill:#000000;fill-opacity:1;fill-rule:nonzero;stroke:none"
             d="M 0,0 H -4.87 V 2 H 0 c 9.132,0 10.673,2.36 10.673,7.649 v 16.123 c 0,3.841 0.381,7.198 4.4,8.902 -4.019,1.703 -4.4,5.06 -4.4,8.901 v 16.123 c 0,5.29 -1.541,7.65 -10.673,7.65 h -4.87 v 2 H 0 c 9.356,0 12.673,-2.525 12.673,-9.65 V 43.575 c 0,-4.591 0.556,-6.851 5.639,-7.749 L 19.139,35.68 V 33.667 L 18.312,33.521 C 13.229,32.624 12.673,30.363 12.673,25.772 V 9.649 C 12.673,2.525 9.356,0 0,0" /></g><g
           transform="translate(53.4218,25.8249)"
           id="g3898"><path
             id="path3900"
             style="fill:#000000;fill-opacity:1;fill-rule:nonzero;stroke:none"
             d="m 0,0 h -4.87 c -9.357,0 -12.673,2.525 -12.673,9.649 v 16.123 c 0,4.591 -0.557,6.852 -5.64,7.749 l -0.826,0.146 v 2.013 l 0.826,0.146 c 5.083,0.898 5.64,3.159 5.64,7.749 v 16.123 c 0,7.125 3.316,9.65 12.673,9.65 H 0 v -2 h -4.87 c -9.132,0 -10.673,-2.36 -10.673,-7.65 V 43.575 c 0,-3.841 -0.38,-7.198 -4.401,-8.901 4.021,-1.704 4.401,-5.061 4.401,-8.902 V 9.649 C -15.543,4.36 -14.002,2 -4.87,2 H 0 Z" /></g><g
           transform="translate(61.1085,60.8589)"
           id="g3902"><path
             id="path3904"
             style="fill:#000000;fill-opacity:1;fill-rule:nonzero;stroke:none"
             d="m 0,0 h 11.28 c 3.12,0 5.49,0.699 7.11,2.1 1.62,1.4 2.43,3.42 2.43,6.06 0,2.64 -0.81,4.65 -2.43,6.029 -1.62,1.381 -3.99,2.071 -7.11,2.071 H 0 Z M 11.28,-3.18 H 0 v -16.98 h -3.42 v 39.599 h 14.76 c 3.96,0 7.129,-1.009 9.51,-3.029 2.379,-2.02 3.57,-4.77 3.57,-8.25 0,-2.88 -0.82,-5.28 -2.46,-7.2 -1.641,-1.92 -3.9,-3.16 -6.78,-3.72 l 8.4,-17.4 h -4.02 z" /></g></g></g></g></svg>